<svg xmlns="http://www.w3.org/2000/svg" fill="none" viewBox="0 0 106 38" class="Logo__LogoIcon-sc-9e1884b3-0 cLOoP"><g clip-path="url(#dice-lockup_svg__a)"><path fill="currentColor" d="M45.978 27.735h-1.02c-.127 0-.23-.1-.23-.224V10.96c0-.124.103-.225.23-.225h1.06c2.604 0 3.603.791 3.603 8.392 0 7.714-.924 8.608-3.643 8.608m8.97-21.126c-1.187-1.454-3.117-2.939-8.434-2.939h-9.306a.568.568 0 0 0-.572.562V34.67c0 .31.256.562.572.562h9.181c4.39 0 6.994-1.026 8.706-3.43 1.755-2.466 2.538-6.488 2.538-13.041 0-6.131-.828-9.88-2.685-12.152Zm43.254 16.095h6.939a.568.568 0 0 0 .573-.562v-5.756a.568.568 0 0 0-.573-.562h-6.94c-.126 0-.228-.101-.228-.225V10.96c0-.124.102-.225.229-.225h7.225a.567.567 0 0 0 .573-.561V4.232a.567.567 0 0 0-.573-.562H90.452a.567.567 0 0 0-.573.562V34.67c0 .31.257.562.573.562h14.975a.567.567 0 0 0 .573-.562v-6.372a.567.567 0 0 0-.573-.562h-7.225c-.127 0-.23-.1-.23-.225V22.93c0-.124.103-.224.23-.224M66.282 3.67H59.32a.564.564 0 0 0-.566.566v30.485c0 .28.235.51.52.51h7.053c.286 0 .52-.23.52-.51V4.236a.564.564 0 0 0-.565-.566Zm22.592 20.593c0-1.104-.17-2.505-1.469-2.505h-5.684c-.772.001-.756.495-.744.675.025.232.07.712.07 1.118 0 3.935-1.202 4.44-2.25 4.44-1.247 0-2.662 0-2.662-8.946 0-8.003 1.07-8.621 2.58-8.621 1.23 0 2.248.319 2.248 4.235 0 .446-.022 1.15-.034 1.477 0 .174-.02.681.758.681h5.642c1.106 0 1.394-1.057 1.454-2.016.01-.277.49-5.938-2.252-8.89-1.637-1.762-4.145-2.647-7.733-2.647-7.794 0-10.83 4.435-10.83 15.821 0 6.177.824 10.267 2.593 12.874 1.704 2.51 4.295 3.678 8.154 3.678 3.383 0 5.952-.979 7.637-2.909 1.659-1.901 2.485-4.676 2.527-8.468l-.005.003Z"/><path fill="#fff" d="M25.241 31.107c-1.027-.398-1.579-.978-1.597-1.677-.005-.218-.053-5.376-.042-7.751.003-.816.016-1.507.026-1.944.01-.42.14-.827.376-1.177.71-1.052 2.488-3.663 3.654-5.185.34-.444.47-.875.399-1.317-.142-.875-1.037-1.503-1.075-1.529-.523-.37-12.846-9.066-14.144-10.068C12.444.154 12.06 0 11.702 0c-.618 0-1.031.44-1.035.445l-.019.021C10.544.58 8.075 3.28 6.902 5.291 6.178 6.532 5.795 6.826 5.424 7.11c-.265.203-.516.394-.954 1.036-.962 1.408-2.692 4.287-3.837 6.192l-.345.574c-.358.596-.383 1.162-.072 1.684.24.404.612.625.616.628l.025.014 4.795 3.752.01.186c.265 5.33.159 9.059.022 11.248l-.058.989s-.196 2.116.139 2.764c.376.719 1.122 1.027 1.634 1.157.69.174 2.75.543 4.609.646.218.013.42.02.61.02.812 0 1.353-.129 1.714-.402.434-.326.567-.827.633-1.479.234-2.294-2.172-3.28-2.199-3.291-.141-.05-1.396-.533-1.88-1.856-.45-1.232-.584-5.817-.597-6.336a.307.307 0 0 1 .153-.278c.1-.058.219-.059.319 0l.151.087c.036.021 3.597 2.088 4.982 2.898.302.177.587.267.845.267.462 0 .724-.295.756-.333l1.038-1.373a.309.309 0 0 1 .349-.11.303.303 0 0 1 .216.29c.035 2.225.097 6.235.112 8.11.01 1.184 1.239 1.532 1.379 1.568l.006.002c.16.029 3.968.72 5.24.72.114.003.218.005.318.005 1.764 0 2.389-.509 2.389-1.945 0-1.878-2.068-2.96-3.301-3.437Z"/><path fill="#fff" d="M10.625 12.21c-.161.107-.346.155-.507.239-.158.082-.339.133-.465.287-.089.11-.232.176-.354.256-.177.116-.232.2-.34.416-.045.089-.1.178-.13.27a2.448 2.448 0 0 0-.094.49c-.015.162-.083.32-.05.487.008.042-.063.049-.043.098.112.16.193.35.364.467.12.082.214.195.366.236a.405.405 0 0 0 .237.008c.141-.044.282-.081.433-.077.224.007.449 0 .673.003.057.001.111-.004.173.032.09.054.177-.035.263-.063.247-.08.47-.21.696-.336a.23.23 0 0 0 .085-.07c.095-.15.201-.292.33-.416.098-.094.187-.203.254-.312.109-.176.197-.376.163-.598-.004-.024-.027-.044-.042-.068.045-.018.072-.026.091.028.069.191.157.376.14.588a.669.669 0 0 0 .04.305c.035.093.012.2.042.304.036.13.041.287-.053.409-.045.058-.02.115-.031.174-.173.167-.327.36-.54.48-.262.149-.535.278-.8.418-.109.058-.207.14-.32.18-.145.049-.279.115-.407.192-.125.075-.279.075-.398.16-.011.009-.027.022-.037.02-.103-.03-.188.054-.283.044-.214-.022-.408.04-.604.113-.251.095-.54.09-.811.036-.127-.025-.261-.007-.392-.008-.067 0-.133.003-.19-.046-.123-.104-.289-.083-.43-.135-.195-.073-.394-.131-.577-.232-.087-.047-.192-.06-.281-.105-.255-.127-.482-.3-.709-.47-.035-.026-.066-.054-.107-.076-.142-.08-.208-.22-.253-.37-.005-.017-.01-.018 0-.035.106-.17.169-.38.378-.46a.368.368 0 0 0 .188-.152c.108-.18.28-.297.415-.45.005-.006.01-.014.016-.016.297-.104.435-.379.631-.587.306-.325.48-.393.719-.553.216-.145.443-.276.672-.394.303-.156.595-.345.931-.435.241-.179.55-.164.814-.275.038-.016.089-.002.134-.002Z"/><path fill="#000" d="M27.358 34.272c-.182-.422-.472-.771-.778-1.11-.107-.119-.242-.203-.363-.304a2.451 2.451 0 0 0-.564-.37c-.313-.14-.63-.272-.94-.417a6.412 6.412 0 0 0-.6-.235c-.129-.045-.266-.063-.39-.122a1.438 1.438 0 0 1-.617-.513c-.047-.065-.093-.134-.139-.199-.156-.222-.28-.457-.257-.748.009-.121-.061-.243-.043-.372-.087-.073-.046-.173-.04-.257.006-.095-.067-.163-.054-.258.028-.223-.027-.448.042-.674.045-.146-.025-.314.052-.464.007-.015 0-.051-.013-.062-.052-.043-.03-.098-.031-.149-.003-.1-.001-.2-.001-.299v-.576c0-.1.007-.2-.002-.3-.008-.093.045-.198-.043-.28.11-.087-.05-.17-.006-.263.02-.04.023-.107-.036-.143a.146.146 0 0 0 .036-.161.542.542 0 0 1-.044-.213c.002-.066.033-.15-.017-.198-.086-.085.05-.125.024-.203-.025-.076-.005-.167-.005-.252 0-.092-.005-.185.001-.276.007-.095-.035-.198.045-.28-.061-.079-.045-.17-.046-.258v-.392c0-.045-.007-.096.012-.133.077-.146.012-.3.034-.447-.09-.099-.048-.22-.041-.326.007-.117-.078-.21-.054-.328.012-.059-.014-.128.006-.182.02-.053-.089-.069-.017-.134.032-.029.012-.115.013-.175 0-.192-.009-.385.002-.576.027-.495-.079-.985-.05-1.479.003-.036-.014-.071-.021-.105a1.342 1.342 0 0 1 0-.51c.03-.171.13-.324.119-.507-.008-.117.121-.313.188-.41.075-.107.188-.204.18-.355-.007-.11.066-.19.113-.275.038-.067.077-.16.172-.178.115-.022.161-.116.172-.201.01-.082.094-.114.094-.169-.001-.084.05-.12.092-.172.057-.074.136-.142.144-.24a.375.375 0 0 1 .12-.25c.076-.073.13-.165.189-.248.057-.079.201-.108.17-.247-.001-.008.021-.021.032-.032.145-.147.317-.278.33-.51 0-.012.019-.025.032-.032.081-.05.115-.139.16-.212.095-.157.23-.282.324-.44.12-.2.237-.41.419-.567.034-.137.165-.203.238-.315.079-.121.165-.243.256-.357.075-.093.186-.16.226-.277.04-.116.136-.188.204-.28.08-.105.137-.226.225-.322.135-.148.238-.314.35-.477.065-.095.057-.18.076-.272.024-.121-.08-.185-.104-.281-.12-.026-.172-.14-.264-.203-.195-.133-.395-.262-.563-.433-.097-.099-.194-.2-.296-.292a2.89 2.89 0 0 0-.464-.333 7.39 7.39 0 0 1-1.021-.727 2.437 2.437 0 0 0-.412-.29c-.21-.116-.403-.262-.603-.395-.183-.121-.329-.289-.528-.392-.082-.043-.168-.083-.246-.138-.192-.138-.384-.273-.566-.425-.301-.252-.654-.428-.996-.618-.196-.11-.374-.25-.577-.342-.126-.058-.19-.181-.319-.236-.326-.14-.587-.381-.866-.59-.154-.115-.333-.202-.46-.352-.297-.138-.564-.327-.828-.518-.15-.108-.31-.205-.44-.333-.151-.15-.325-.271-.483-.414-.093-.084-.186-.174-.289-.248a9.687 9.687 0 0 1-.635-.485c-.09-.075-.171-.168-.276-.223-.294-.155-.574-.334-.855-.51-.124-.077-.279-.143-.352-.256-.106-.167-.294-.259-.372-.444-.014-.033-.049-.072-.08-.08-.207-.046-.32-.25-.527-.301-.046-.012-.123-.059-.139-.096-.03-.071-.06-.106-.14-.115-.067-.008-.082-.1-.153-.122a1.123 1.123 0 0 1-.515-.325c-.03-.033-.073-.046-.11-.067-.176-.1-.359-.181-.538-.271-.131-.066-.254-.114-.409-.072-.25.301-.58.53-.862.808-.17.168-.357.326-.584.422-.062.026-.101.08-.136.14-.07.123-.165.228-.262.332-.162.175-.312.36-.46.549-.034.045-.06.097-.1.143-.15.177-.297.357-.397.573l-.2.425c-.077.168-.192.32-.29.48-.148.238-.306.471-.44.717-.153.28-.321.546-.492.813-.168.265-.332.523-.609.69-.033.02-.037.059-.05.095-.046.138-.11.283-.233.36-.12.075-.204.179-.305.267-.067.06-.12.142-.212.16-.104.022-.097.14-.176.182-.03.016-.056.014-.085.018-.06.009-.103.044-.097.103.006.067-.044.091-.076.132-.09.115-.255.176-.263.352-.1.007-.09.121-.16.162-.073.043-.106.122-.15.191-.012.019-.031.029-.057.029-.108.002-.137.085-.19.16-.037.054-.023.112-.056.163-.098.15-.214.289-.287.457a1.165 1.165 0 0 1-.18.27c-.068.08-.075.214-.163.252-.129.056-.08.19-.158.26-.012.01-.026.02-.032.033-.092.176-.252.3-.356.474a6.754 6.754 0 0 0-.26.471c-.107.213-.202.427-.347.62-.045.059-.1.14-.102.233-.004.195-.091.358-.199.517-.138.203-.27.41-.394.621-.134.228-.248.468-.386.693-.041.067-.097.13-.133.2-.076.148-.168.284-.252.427-.097.166-.247.305-.282.506-.011.063-.073.106-.074.177 0 .078.108.085.1.17-.003.024.051.052.076.082.18.213.433.332.654.493.08.058.186.083.263.145.093.075.177.159.278.227.218.147.44.294.641.463.166.139.366.227.512.396.25.288.578.498.832.784.015.018.03.037.05.049.193.116.342.286.518.425.106.084.198.181.307.264.366.279.767.502 1.152.75.148.095.246.204.242.39-.003.156-.03.316.044.466-.033.295.048.585.047.88-.001.422.005.844-.005 1.266-.002.083.023.158.018.242-.016.269-.053.543.036.807a.2.2 0 0 1 .002.148c-.03.085.05.183.033.254-.03.128.02.243.009.363-.012.133-.008.263-.038.398-.052.241.027.487.062.73.004.025.037.056.013.078-.07.064-.046.15-.031.214.016.07-.044.11-.03.179.01.058-.028.132-.023.203.003.061 0 .123 0 .185.001.066-.005.129.043.191.023.03-.049.081-.002.147.032.047.006.134.006.203 0 .27-.013.539.003.807.017.274-.05.54-.05.81.001.369 0 .738 0 1.106 0 .085.021.177-.006.252-.024.065-.019.144-.072.2-.013.014-.014.042-.014.063-.001.13-.014.263.003.392.018.132-.063.245-.05.373a.486.486 0 0 1-.046.234c-.033.085.066.149.047.234-.008.036.004.084-.016.109-.034.043-.046.071-.002.114.038.036.017.088.015.13-.01.194.003.386-.035.583-.05.247-.01.506-.048.764-.047.326.017.662-.05.994-.025.127.013.263.033.396.049.314.196.56.413.779.033.033.08.02.109.064.121.191.292.303.53.291.015 0 .04-.006.045.001.051.07.129.055.19.042.085-.02.133.058.214.052a1.76 1.76 0 0 1 .66.083c.094.028.195.06.304.059.104 0 .195.093.31.086.105-.007.196.08.306.046.236.08.48.1.728.093.06-.002.131-.013.18.012.152.08.322.081.484.12.057.013.1.06.165.053.06-.006.14-.022.18.008.08.063.17.005.24.04a.492.492 0 0 0 .261.042c.242-.012.482.02.726-.038.164-.04.341-.01.515-.047.152-.034.281-.113.414-.177.098-.047.167-.15.21-.277.064-.197.086-.396.115-.596a.686.686 0 0 0-.007-.319 2.16 2.16 0 0 0-.457-.777 2.043 2.043 0 0 1-.267-.332c-.108-.176-.273-.28-.428-.378-.302-.194-.653-.288-1.001-.38-.143-.04-.32-.016-.419-.175-.007-.012-.067-.058-.113-.051-.052.007-.08-.026-.12-.048-.156-.088-.264-.227-.39-.345-.02-.02-.054-.035-.047-.073.017-.086-.05-.138-.103-.162-.21-.095-.247-.313-.357-.475-.071-.104-.02-.265-.142-.357-.012-.009-.005-.045-.001-.067.01-.053-.021-.083-.053-.118a.381.381 0 0 1-.091-.193c-.012-.063-.057-.12-.041-.189.017-.073-.048-.118-.052-.188-.012-.166-.062-.33-.106-.487-.062-.22-.068-.456-.169-.666.03-.101-.05-.184-.047-.28.002-.096-.022-.189-.038-.283-.043-.253-.066-.511-.095-.767-.034-.306-.013-.616-.041-.926-.027-.296-.05-.602.031-.903.054-.199-.053-.398-.044-.602.006-.153.036-.315-.083-.45-.02-.022-.008-.073-.007-.11.028-1.063-.08-2.123-.047-3.185v-.046c-.007-.097-.009-.2.065-.271.071-.07-.006-.13 0-.2.039.02.074-.001.114.02.117.06.22.139.328.215.311.224.646.41.98.601.1.058.191.136.297.176.186.07.34.188.51.283.043.024.006.084.072.097.159.03.294.112.425.206.065.046.14.082.226.068.071-.012.116.023.141.085.03.073.074.125.153.147.027.007.063.035.067.057.012.083.1.058.121.085.067.08.172-.004.23.075.062.087.163.118.255.165.08.043.172.075.203.188.014.05.078.1.15.126.048.018.11.036.15.087.092.122.237.164.364.237.065.038.137.05.2.077.286.12.54.298.82.429a.772.772 0 0 1 .216.153c.05.05.088.114.182.124.071.007.131.106.203.116.12.018.188.11.287.152.106.045.206.098.306.159.16.096.324.212.537.155.127-.12.26-.243.357-.398.128-.204.292-.381.414-.59.032-.055.064-.113.108-.165.163-.188.297-.397.441-.6.102-.142.184-.295.285-.437.17-.239.323-.489.521-.71.058-.063.127-.13.164-.207.045-.09.133-.094.195-.144a.693.693 0 0 0 .216-.255.773.773 0 0 1 .214-.302.585.585 0 0 0 .203-.308c.03-.125.123-.196.166-.303.058.045.088.09.079.16-.01.076-.002.154-.002.231v.23c0 .077-.031.18.006.226.069.083-.017.13-.013.197.016.284.007.569.007.853 0 .046.017.102-.003.136-.082.136-.009.287-.049.42-.042.14-.04.279-.04.42-.002.215.006.43-.003.644-.01.212.067.413.053.627-.018.26-.005.522-.004.783 0 .06-.017.146.015.175.069.062-.026.122.004.145.073.057-.029.105.003.147.047.062.034.109-.015.16-.01.01-.006.046.005.06.025.03.06.067.018.093-.066.039.04.069-.003.1a.088.088 0 0 0-.018.123c.027.038.021.049 0 .086-.021.034-.028.104-.006.13.046.055.047.11.042.169-.023.234.072.46.054.696-.003.045.016.094-.005.146-.027.069.028.125.043.188.002.01-.02.022-.023.035-.015.059.082.125.008.17-.09.056.051.12-.02.164.06.094.02.201.04.3.011.058-.063.098-.02.153.053.071-.02.121-.027.182-.01.083-.009.169-.001.252.008.092-.09.177-.043.255.052.085-.018.145-.011.219.007.082.072.146.055.234-.013.067-.001.138-.003.207a.403.403 0 0 0 .031.205c-.096.041.036.104-.018.163-.061.067.037.131.035.205-.004.184.011.37-.005.553-.016.19.06.369.051.557-.006.161.013.324-.004.484-.02.184.036.357.058.533.01.08.037.179.12.25a.957.957 0 0 0 .377.214c.295.082.588.17.899.185.094.005.2.023.278.055.09.035.19-.004.256.05.087.073.204.046.284.1.096.065.207.08.306.1.13.027.248.093.378.105.14.012.28.02.423.04.214.033.435.027.654.046.345.031.696.005 1.044.01.342.004.685-.023 1.027.04.134.025.279-.005.417.008.11.01.22-.022.296-.07a.615.615 0 0 0 .268-.295c.082-.222.119-.444.024-.665Zm-14.46-19.08c-.046.06-.02.116-.032.175-.173.167-.327.36-.54.48-.262.149-.535.278-.8.418-.109.058-.207.14-.32.18-.145.049-.279.115-.407.192-.125.075-.279.075-.398.16-.011.009-.028.022-.037.02-.103-.031-.188.054-.283.044-.214-.022-.408.039-.604.113-.25.095-.54.09-.811.036-.126-.025-.261-.007-.392-.008-.067 0-.133.003-.19-.046-.123-.104-.288-.083-.43-.136-.195-.072-.394-.13-.577-.23-.087-.048-.192-.061-.281-.106-.255-.127-.482-.3-.709-.47-.035-.026-.066-.054-.106-.077-.143-.079-.209-.219-.254-.37-.005-.016-.01-.017 0-.034.106-.17.169-.38.378-.46a.367.367 0 0 0 .188-.152c.108-.181.28-.297.415-.45.005-.007.01-.014.016-.017.297-.103.435-.379.631-.587.306-.325.48-.393.719-.553a6.9 6.9 0 0 1 .672-.393c.304-.157.595-.345.932-.436.24-.178.548-.163.813-.274.038-.016.089-.002.134-.002-.16.107-.345.155-.507.239-.158.082-.339.134-.465.288-.089.108-.231.175-.353.255-.177.117-.232.201-.34.417-.045.088-.101.177-.13.269a2.462 2.462 0 0 0-.095.49c-.015.163-.082.32-.05.487.009.043-.062.049-.042.098.11.161.193.351.363.468.12.081.214.195.367.236a.405.405 0 0 0 .236.007c.141-.043.282-.08.433-.076.224.006.449 0 .673.003.058 0 .111-.005.173.032.09.054.177-.035.264-.063.247-.08.47-.21.695-.336a.231.231 0 0 0 .085-.07c.095-.151.201-.293.33-.417.098-.093.187-.203.254-.311.109-.176.197-.377.163-.599-.003-.023-.026-.043-.042-.067.045-.019.072-.026.091.028.069.19.157.375.14.588a.673.673 0 0 0 .04.305c.035.092.012.2.042.304.035.129.041.286-.053.408Zm9.34-2.58c-.122.12-.236.25-.375.349a.9.9 0 0 1-.16.092c-.02.01-.035.03-.05.048-.152.177-.211.214-.319.25l-.008.002-.021.007c-.065.02-.147.041-.272.09-.075.03-.15.057-.224.088l-.018.007a.986.986 0 0 0-.22.129c-.102.08-.22.111-.336.145-.15.043-.308.067-.464.092l-.007.002c-.095.015-.135.108-.223.136-.038.012-.071.04-.116.054l-.068.02c-.14.044-.28.08-.429.066-.092-.009-.164.059-.26.051-.064-.005-.135-.021-.198.003a.164.164 0 0 0-.06.04.743.743 0 0 0-.157 0l-.008.002a1.5 1.5 0 0 0-.184.033c-.088.02-.175.04-.263.05-.247.024-.494.083-.746.054-.106-.012-.23.036-.315-.02-.09-.058-.206.03-.273-.073-.121.012-.237-.035-.352-.04-.115-.003-.22-.04-.327-.06-.166-.03-.326-.089-.497-.084a.25.25 0 0 1-.087-.012.34.34 0 0 1-.114-.07A1.613 1.613 0 0 1 15 13.98c.028-.101-.038-.215.044-.324.017-.022.032-.052.051-.078.007-.01.012-.02.021-.027.228-.166.36-.269.47-.396l.02-.022c.061-.074.118-.157.182-.266a.468.468 0 0 1 .062-.08l.004-.003c.071-.076.156-.14.174-.257.019-.13.105-.232.175-.342.085-.133.204-.233.288-.364a.616.616 0 0 1 .099-.11l.001-.002c.037-.034.075-.066.11-.101.072-.073.133-.16.207-.223l.06-.054c.051-.049.102-.099.157-.144l.25-.208c.185-.156.37-.311.565-.454.024-.018.05-.033.076-.048.095-.055.201-.096.307-.13l.066-.021c.017-.005.033-.013.05-.02.034-.013.069-.027.102-.042l.046-.02.162-.07c.108-.045.216-.09.324-.137a1.967 1.967 0 0 1-.135.156l-.004.004-.001.001c-.047.05-.097.096-.148.14l-.103.087c-.097.083-.191.17-.265.278a.743.743 0 0 0-.077.139.793.793 0 0 1-.183.248c-.097.094-.184.2-.187.342v.004c0 .02.001.04.005.062.005.034-.004.071-.013.108-.046.181-.09.364-.11.549a1.97 1.97 0 0 0-.013.183c0 .036.003.072.01.107.017.094.061.18.15.21l.017.007c.095.034.182.087.285.106.051.01.105.023.154.047a.282.282 0 0 1 .142.137c.133-.04.245.052.375.043.13-.01.263-.006.394-.001a.69.69 0 0 0 .32-.07c.062-.032.128-.061.193-.09.244-.11.496-.203.737-.319.062-.03.124-.058.183-.091.17-.098.33-.218.482-.343.063-.051.186-.05.181-.173a.544.544 0 0 0 .096-.132.75.75 0 0 0 .077-.232c.008-.044.013-.09.017-.135.01-.098.049-.196.04-.29a.115.115 0 0 1 .048-.014c.04-.002.061.031.079.056.036.052.075.101.115.151.035.045.07.09.102.137.036.05.07.102.095.16.071.161.174.307.219.485.063.253.058.35-.113.52v-.001Z"/></g><defs><clipPath id="dice-lockup_svg__a"><path fill="#fff" d="M0 0h106v38H0z"/></clipPath></defs></svg>